<?xml version="1.0"?>
<svg xmlns="http://www.w3.org/2000/svg" id="Filled" viewBox="0 0 512 512" width="512" height="512"><path d="M400,216a23.928,23.928,0,0,1-16.971-7.029L256,81.941,128.971,208.971a24,24,0,0,1-33.942-33.942l144-144a24,24,0,0,1,33.942,0l144,144A24,24,0,0,1,400,216Z" style="fill:#cfd2fc"/><path d="M256,488a23.928,23.928,0,0,1-16.971-7.029l-144-144a24,24,0,0,1,33.942-33.942L256,430.059l127.029-127.03a24,24,0,0,1,33.942,33.942l-144,144A23.928,23.928,0,0,1,256,488Z" style="fill:#cfd2fc"/><path d="M400.012,224a31.8,31.8,0,0,1-22.629-9.373L256,93.245,134.617,214.627a32,32,0,0,1-45.258-45.259L233.371,25.357a32.042,32.042,0,0,1,45.258,0h0L422.641,169.368A32,32,0,0,1,400.012,224ZM256,73.93a7.974,7.974,0,0,1,5.657,2.343L388.7,203.312a16,16,0,0,0,22.63-22.629L267.315,36.672h0a16.02,16.02,0,0,0-22.63,0L100.673,180.683a16,16,0,0,0,22.63,22.629L250.343,76.273A7.974,7.974,0,0,1,256,73.93Z"/><path d="M256,496a31.8,31.8,0,0,1-22.629-9.373h0L89.359,342.616a32,32,0,0,1,45.258-45.259L256,418.739,377.383,297.358a32,32,0,1,1,45.258,45.258L278.629,486.627A31.8,31.8,0,0,1,256,496Zm-11.315-20.688a16,16,0,0,0,22.63,0L411.327,331.3a16,16,0,0,0-22.63-22.63L261.657,435.711a8,8,0,0,1-11.314,0L123.3,308.672a16,16,0,0,0-22.63,22.63l144.012,144.01Z"/></svg>
